<svg width="0" height="0" class="hidden" xmlns="http://www.w3.org/2000/svg">
  <defs>
    <symbol fill="none" viewBox="0 0 60 64" id="antenna">
      <path d="M59.5463 44.1952L42.6599 27.1851L44.534 17.9541C45.0176 18.1429 45.5318 18.2416 46.0508 18.2453H46.0636C48.4482 18.2735 50.404 16.3633 50.4323 13.9788C50.4606 11.5943 48.5503 9.6384 46.1658 9.61013C43.7812 9.582 41.8254 11.4921 41.7971 13.8767C41.7911 14.3869 41.8755 14.8941 42.0466 15.3749L32.1266 16.5856L15.9452 0.32C15.7467 0.117467 15.4757 0.00226667 15.1921 0C14.9121 0.00146667 14.644 0.112933 14.4455 0.3104L11.4204 3.3184C11.004 3.73493 11.004 4.41013 11.4204 4.82667L13.0481 6.47787C6.74201 18.0737 8.79028 32.4335 18.0871 41.8037C18.1724 41.8853 18.2713 41.9513 18.3793 41.9989C18.3121 42.3599 18.2771 42.7261 18.2748 43.0933V55.4667H5.47481C2.53081 55.4701 0.144946 57.856 0.141479 60.8V62.9333C0.141479 63.5224 0.61908 64 1.20815 64H50.2748C50.8639 64 51.3415 63.5224 51.3415 62.9333V60.8C51.338 57.856 48.9522 55.4701 46.0082 55.4667H33.2082V49.9829C35.2134 50.4035 37.2564 50.6179 39.3052 50.6229C44.2215 50.6176 49.0595 49.392 53.3852 47.056L55.0215 48.7019C55.22 48.9044 55.491 49.0196 55.7746 49.0219C56.0546 49.0204 56.3227 48.9089 56.5212 48.7115L59.5463 45.7035C59.9627 45.2869 59.9627 44.6117 59.5463 44.1952Z" fill="#2E2F42"/>
      <path d="M25.7511 40.5333H25.7415C23.9742 40.5306 22.5394 41.9612 22.5367 43.7285C22.534 45.4958 23.9646 46.9306 25.7319 46.9333H25.7415C27.5088 46.936 28.9436 45.5054 28.9463 43.7381C28.9489 41.9708 27.5184 40.536 25.7511 40.5333Z" fill="#4D5AE5"/>
    </symbol>

    <symbol fill="none" viewBox="0 0 64 64" id="clock">
      <path d="M62.5933 30.6025C62.5899 13.6978 48.8828 -0.00341734 31.9775 6.39362e-07C15.0728 0.00341861 1.37158 13.7109 1.375 30.6157C1.37793 43.9316 9.98877 55.7178 22.6738 59.7681C22.7949 59.8062 22.9209 59.8257 23.0474 59.8252C23.2886 59.8247 23.5249 59.7603 23.7324 59.6377C24.0024 59.478 24.2041 59.2241 24.2988 58.9248L32.0288 34.4248C34.1421 34.4141 35.8462 32.6919 35.835 30.5791C35.8242 28.4658 34.1025 26.7617 31.9893 26.7725Z" fill="#2E2F42"/>
      <path d="M30.709 6.37012V8.9209C30.709 9.62549 31.2798 10.1963 31.9844 10.1963C32.6885 10.1963 33.2598 9.62549 33.2598 8.9209V6.37012C33.2598 5.66602 32.6885 5.09473 31.9844 5.09473C31.2798 5.09473 30.709 5.66602 30.709 6.37012Z" fill="#4D5AE5"/>
    </symbol>

    <symbol fill="none" viewBox="0 0 64 64" id="diagram">
      <g clip-path="url(#clip0_302815_4209)">
        <path d="M29.851 29.9292H31.9833V39.5242H29.851V29.9292Z" fill="#4D5AE5"/>
      </g>
      <defs>
        <clipPath id="clip0_302815_4209">
          <rect width="64" height="64" fill="white"/>
        </clipPath>
      </defs>
    </symbol>

    <symbol fill="none" viewBox="0 0 16 16" id="facebook">
      <g clip-path="url(#clip0_982620_95)">
        <path d="M10.6647 2.65661H12.1254V0.112606C11.8734 0.077939 11.0067 -6.10352e-05 9.99736 -6.10352e-05C7.89136 -6.10352e-05 6.4487 1.32461 6.4487 3.75927V5.99994H4.12469V8.84394H6.4487V15.9999H9.29803V8.84461H11.528L11.882 6.00061H9.29736V4.04127C9.29803 3.21927 9.51936 2.65661 10.6647 2.65661Z" fill="#F4F4FD"/>
      </g>
      <defs>
        <clipPath id="clip0_982620_95">
          <rect width="16" height="16" fill="white"/>
        </clipPath>
      </defs>
    </symbol>

    <symbol fill="none" viewBox="0 0 16 16" id="linkedin">
      <g clip-path="url(#clip0_982620_99)">
        <path d="M15.9961 16V15.9993H16.0001V10.1313C16.0001 7.26065 15.3821 5.04932 12.0261 5.04932C10.4128 5.04932 9.33009 5.93465 8.88809 6.77398H8.84143V5.31732H5.65942V15.9993H8.97276V10.71C8.97276 9.31732 9.23676 7.97065 10.9614 7.97065C12.6608 7.97065 12.6861 9.55998 12.6861 10.7993V16H15.9961Z" fill="#F4F4FD"/>
      </g>
      <defs>
        <clipPath id="clip0_982620_99">
          <rect width="16" height="16" fill="white"/>
        </clipPath>
      </defs>
    </symbol>    <defs>
      <clipPath id="clip0_302815_4209">
        <rect width="64" height="64" fill="white"></rect>
      </clipPath>
    </defs>
  </symbol>
  <symbol fill="none" xmlns="http://www.w3.org/2000/svg" viewBox="0 0 16 16" id="facebook">
    <g clip-path="url(#clip0_982620_95)">
      <path d="M10.6647 2.65661H12.1254V0.112606C11.8734 0.077939 11.0067 -6.10352e-05 9.99736 -6.10352e-05C7.89136 -6.10352e-05 6.4487 1.32461 6.4487 3.75927V5.99994H4.12469V8.84394H6.4487V15.9999H9.29803V8.84461H11.528L11.882 6.00061H9.29736V4.04127C9.29803 3.21927 9.51936 2.65661 10.6647 2.65661Z" fill="#F4F4FD"></path>
    </g>
    <defs>
      <clipPath id="clip0_982620_95">
        <rect width="16" height="16" fill="white"></rect>
      </clipPath>
    </defs>
  </symbol>
  <symbol fill="none" xmlns="http://www.w3.org/2000/svg" viewBox="0 0 16 16" id="linkedin">
    <g clip-path="url(#clip0_982620_99)">
      <path d="M15.9961 16V15.9993H16.0001V10.1313C16.0001 7.26065 15.3821 5.04932 12.0261 5.04932C10.4128 5.04932 9.33009 5.93465 8.88809 6.77398H8.84143V5.31732H5.65942V15.9993H8.97276V10.71C8.97276 9.31732 9.23676 7.97065 10.9614 7.97065C12.6608 7.97065 12.6861 9.55998 12.6861 10.7993V16H15.9961Z" fill="#F4F4FD"></path>
      <path d="M0.264038 5.31793H3.58137V15.9999H0.264038V5.31793Z" fill="#F4F4FD"></path>
      <path d="M1.92139 -6.10352e-05C0.860728 -6.10352e-05 6.10352e-05 0.860606 6.10352e-05 1.92127C6.10352e-05 2.98194 0.860728 3.86061 1.92139 3.86061C2.98206 3.86061 3.84273 2.98194 3.84273 1.92127C3.84206 0.860606 2.98139 -6.10352e-05 1.92139 -6.10352e-05V-6.10352e-05Z" fill="#F4F4FD"></path>
    </g>
    <defs>
      <clipPath id="clip0_982620_99">
        <rect width="16" height="16" fill="white"></rect>
      </clipPath>
    </defs>
  </symbol>
  <symbol fill="none" xmlns="http://www.w3.org/2000/svg" viewBox="0 0 16 16" id="instagram">
    <g clip-path="url(#clip0_982599_83)">
      <path d="M15.9843 4.70398C15.9468 3.85384 15.8093 3.26938 15.6124 2.76293C15.4092 2.22535 15.0967 1.74405 14.6872 1.34395C14.2871 0.937622 13.8026 0.621887 13.2713 0.421896C12.7619 0.224959 12.1805 0.0874805 11.3303 0.0499976C10.4738 0.00934021 10.2019 -6.10352e-05 8.02963 -6.10352e-05C5.85733 -6.10352e-05 5.58543 0.00934021 4.73212 0.0468231C3.88197 0.084306 3.29751 0.221906 2.79119 0.418722C2.25348 0.621887 1.77219 0.934448 1.37209 1.34395C0.965758 1.74405 0.650145 2.22852 0.450033 2.75988C0.253096 3.26938 0.115618 3.85067 0.0781347 4.70081C0.0374774 5.5573 0.0280762 5.8292 0.0280762 8.0015C0.0280762 10.1738 0.0374774 10.4457 0.0749603 11.299C0.112443 12.1492 0.250043 12.7336 0.446981 13.2401C0.650145 13.7777 0.965758 14.259 1.37209 14.6591C1.77219 15.0654 2.25666 15.3811 2.78801 15.5811C3.29751 15.778 3.8788 15.9155 4.72906 15.953C5.58226 15.9906 5.85428 15.9999 8.02658 15.9999C10.1989 15.9999 10.4708 15.9906 11.3241 15.953C12.1742 15.9155 12.7587 15.778 13.265 15.5811C14.3403 15.1654 15.1904 14.3152 15.6062 13.2401C15.803 12.7306 15.9406 12.1492 15.9781 11.299C16.0156 10.4457 16.025 10.1738 16.025 8.0015C16.025 5.8292 16.0218 5.5573 15.9843 4.70398ZM14.5435 11.2365C14.509 12.0179 14.3778 12.4399 14.2684 12.7212C13.9995 13.4182 13.4463 13.9714 12.7493 14.2403C12.468 14.3497 12.043 14.4809 11.2646 14.5152C10.4207 14.5528 10.1676 14.5621 8.03281 14.5621C5.89799 14.5621 5.64172 14.5528 4.80085 14.5152C4.01945 14.4809 3.5975 14.3497 3.31619 14.2403C2.96932 14.1121 2.65359 13.9089 2.39731 13.6432C2.13163 13.3838 1.92847 13.0712 1.80027 12.7243C1.69087 12.443 1.55962 12.0179 1.52532 11.2397C1.48771 10.3958 1.47843 10.1425 1.47843 8.00773C1.47843 5.87291 1.48771 5.61664 1.52532 4.7759C1.55962 3.99449 1.69087 3.57254 1.80027 3.29123C1.92847 2.94424 2.13163 2.62863 2.40049 2.37223C2.65981 2.10655 2.97237 1.90339 3.31937 1.77531C3.60067 1.66591 4.0258 1.53466 4.80403 1.50023C5.64794 1.46275 5.90117 1.45335 8.03586 1.45335C10.1738 1.45335 10.4269 1.46275 11.2678 1.50023C12.0492 1.53466 12.4712 1.66591 12.7525 1.77531C13.0993 1.90339 13.4151 2.10655 13.6714 2.37223C13.937 2.63168 14.1402 2.94424 14.2684 3.29123C14.3778 3.57254 14.509 3.99755 14.5435 4.7759C14.581 5.61981 14.5904 5.87291 14.5904 8.00773C14.5904 10.1425 14.581 10.3926 14.5435 11.2365Z" fill="#F4F4FD"></path>
      <path d="M8.02967 3.8913C5.76055 3.8913 3.91949 5.73223 3.91949 8.00147C3.91949 10.2707 5.76055 12.1117 8.02967 12.1117C10.2989 12.1117 12.1398 10.2707 12.1398 8.00147C12.1398 5.73223 10.2989 3.8913 8.02967 3.8913ZM8.02967 10.6676C6.55758 10.6676 5.3635 9.47368 5.3635 8.00147C5.3635 6.52926 6.55758 5.3353 8.02967 5.3353C9.50188 5.3353 10.6958 6.52926 10.6958 8.00147C10.6958 9.47368 9.50188 10.6676 8.02967 10.6676Z" fill="#F4F4FD"></path>
      <path d="M13.262 3.72883C13.262 4.25872 12.8324 4.68837 12.3024 4.68837C11.7725 4.68837 11.3428 4.25872 11.3428 3.72883C11.3428 3.19882 11.7725 2.76929 12.3024 2.76929C12.8324 2.76929 13.262 3.19882 13.262 3.72883Z" fill="#F4F4FD"></path>
    </g>
    <defs>
      <clipPath id="clip0_982599_83">
        <rect width="16" height="16" fill="white"></rect>
      </clipPath>
    </defs>
  </symbol>
  <symbol fill="none" xmlns="http://www.w3.org/2000/svg" viewBox="0 0 16 16" id="twitter">
    <path d="M16 3.03894C15.405 3.29994 14.771 3.47294 14.11 3.55694C14.79 3.15094 15.309 2.51294 15.553 1.74394C14.919 2.12194 14.219 2.38894 13.473 2.53794C12.871 1.89694 12.013 1.49994 11.077 1.49994C9.261 1.49994 7.799 2.97394 7.799 4.78094C7.799 5.04094 7.821 5.29094 7.875 5.52894C5.148 5.39594 2.735 4.08894 1.114 2.09794C0.831 2.58894 0.665 3.15094 0.665 3.75594C0.665 4.89194 1.25 5.89894 2.122 6.48194C1.595 6.47194 1.078 6.31894 0.64 6.07794C0.64 6.08794 0.64 6.10094 0.64 6.11394C0.64 7.70794 1.777 9.03194 3.268 9.33694C3.001 9.40994 2.71 9.44494 2.408 9.44494C2.198 9.44494 1.986 9.43294 1.787 9.38894C2.212 10.6879 3.418 11.6429 4.852 11.6739C3.736 12.5469 2.319 13.0729 0.785 13.0729C0.516 13.0729 0.258 13.0609 0 13.0279C1.453 13.9649 3.175 14.4999 5.032 14.4999C11.068 14.4999 14.368 9.49994 14.368 5.16594C14.368 5.02094 14.363 4.88094 14.356 4.74194C15.007 4.27994 15.554 3.70294 16 3.03894Z" fill="#F4F4FD"></path>
  </symbol>
</svg>